<svg id="Warstwa_3" data-name="Warstwa 3" xmlns="http://www.w3.org/2000/svg" viewBox="0 0 587.04 140" preserveAspectRatio="xMidYMid meet"><defs><style>.cls-1{fill:#2b2e34;}.cls-2{fill:#ff4419;}</style></defs><g id="Warstwa_1" data-name="Warstwa 1"><path id="Path_2" data-name="Path 2" class="cls-1" d="M587,59.2c0-31.8-24.7-57.1-56.8-57.1-33.2,0-57.7,26.1-57.7,58.9,0,32.6,25.1,58.1,57.9,58.1,23.3,0,45.9-15.8,53-38.1h-27.7c-5.3,9.7-14.6,14-25.3,14a31.68,31.68,0,0,1-26.7-14.6,23.55,23.55,0,0,1-3.6-7.9h85.2A60.6,60.6,0,0,0,587,59.2m-26.9-7.9h-60.7c3.8-15.6,15-25.1,31-25.1s27.1,9.3,29.7,25.1m-89-23.8V2.1c-13,0-18.4,2.8-25.7,13.4H445V5.8h-24.1V115.5h26.3V53.8c-.1-16,6.7-25.7,23.9-26.3m-68.3-9.6a17.9,17.9,0,1,0-35.8,0h0a17.88,17.88,0,0,0,17.9,17.9h0a17.88,17.88,0,0,0,17.9-17.9h0m-48,42.3h0c0-31.2-22.7-58.1-55-58.1-14.4,0-26.5,5.1-35.6,16.6h-.4V5.8h-24.1V140H266V105c10.3,9.9,19.2,14,33.8,14,32.3,0,55-27.8,55-58.8m-26.3.4c0,17.8-13.5,34.4-32,34.4a27.68,27.68,0,0,1-12.9-3.2c-12.7-5.7-19.2-17.6-19.2-31.2,0-18.4,13.5-34.4,32.5-34.4,18.6,0,31.6,16.8,31.6,34.4Zm70.9-11.1h-28v65.9h28Z"/></g><g id="Warstwa_2" data-name="Warstwa 2"><path class="cls-2" d="M212.4,98.75a17.9,17.9,0,1,0-17.9,17.9h0a17.88,17.88,0,0,0,17.9-17.9"/><path id="Path_1" data-name="Path 1" class="cls-2" d="M210.7,69.05v-4.7a60.66,60.66,0,0,0-105.4-41A60.59,60.59,0,0,0,0,64.35H0v51.4H32.3V64.35a28.45,28.45,0,0,1,56.9-.3v51.7h32.3V64.05a28.5,28.5,0,0,1,57,.4v4.7Z"/></g></svg>